<svg xmlns="http://www.w3.org/2000/svg" x="0px" y="0px" viewBox="0 0 425 165">

<g transform="translate(0.000000,500.000000) scale(0.100000,-0.100000)"
fill="#284BE5" stroke="none">
<path d="M1385 3999 c-153 -43 -405 -187 -605 -347 -129 -104 -332 -308 -413
-417 -81 -108 -155 -249 -192 -365 -39 -122 -46 -289 -17 -387 41 -133 140
-218 248 -211 47 3 77 28 33 28 -78 0 -152 51 -192 133 -99 202 -27 514 181
787 82 107 280 309 397 403 331 267 683 418 758 325 17 -20 19 -34 14 -103 -7
-98 -45 -231 -171 -593 -108 -312 -136 -405 -165 -551 -34 -168 -25 -258 30
-314 28 -28 33 -29 97 -25 163 9 348 149 648 489 134 152 265 316 377 473 57
81 93 123 95 113 12 -64 -359 -1100 -415 -1159 -15 -17 -59 -46 -98 -65 -273
-138 -549 -405 -657 -638 -63 -134 -58 -236 12 -273 39 -20 123 -7 194 31 160
85 379 379 548 737 38 80 72 152 77 159 14 28 59 53 112 65 29 7 54 17 56 23
7 19 -25 23 -72 9 -25 -8 -47 -10 -51 -5 -3 5 26 91 65 191 133 350 238 656
295 864 48 175 52 206 31 227 -37 37 -73 9 -164 -127 -306 -456 -738 -933
-934 -1033 -103 -52 -143 -49 -173 9 -24 46 -21 136 10 288 23 115 68 258 205
653 72 206 119 375 127 456 8 81 -11 133 -57 156 -39 21 -149 18 -234 -6z
m677 -1820 c-7 -27 -153 -313 -203 -395 -152 -252 -340 -444 -433 -444 -67 0
-73 107 -14 231 90 189 309 420 538 568 92 59 119 68 112 40z"/>
<path d="M3916 3143 c-25 -25 -46 -113 -27 -113 25 0 53 38 55 75 1 36 -12 54
-28 38z"/>
<path d="M3844 2945 c-11 -14 -42 -34 -70 -45 l-52 -19 -32 30 c-39 37 -69 35
-136 -11 -25 -16 -47 -30 -49 -30 -2 0 -5 12 -7 28 -2 19 -9 27 -23 27 -15 0
-24 -12 -35 -48 -11 -35 -31 -63 -68 -99 -66 -63 -78 -57 -65 36 5 36 6 70 3
76 -12 20 -54 0 -120 -56 l-65 -55 -3 31 c-2 17 -10 34 -18 37 -16 6 -106 -51
-144 -92 -13 -14 -27 -25 -32 -25 -5 0 -6 26 -2 59 11 101 -31 88 -61 -19 -24
-84 -48 -125 -84 -140 -42 -17 -53 -6 -49 49 3 43 1 46 -23 49 -20 2 -34 -7
-65 -45 -56 -69 -81 -93 -98 -93 -36 0 42 137 97 170 23 14 35 16 49 9 43 -23
64 13 28 46 -17 16 -25 17 -59 6 -90 -26 -214 -189 -197 -257 14 -53 118 -34
176 33 17 19 32 34 33 32 20 -39 28 -44 60 -47 20 -2 45 2 56 7 13 7 22 8 26
1 15 -25 48 -4 130 83 48 50 89 87 92 81 2 -6 -6 -32 -17 -58 -11 -26 -18 -52
-14 -57 16 -26 52 -3 141 89 l94 97 -5 -59 c-6 -67 5 -96 35 -96 25 0 77 26
107 53 12 11 22 17 22 12 0 -5 -22 -88 -49 -184 -59 -211 -101 -374 -101 -395
0 -22 27 -20 38 2 5 9 40 116 77 237 37 121 71 225 77 232 5 6 39 21 76 32 78
23 142 73 173 132 14 28 34 46 69 64 27 14 51 25 54 25 2 0 0 -17 -5 -37 -22
-99 42 -127 145 -63 36 22 73 65 100 118 28 54 11 49 -51 -15 -60 -61 -116
-94 -134 -76 -5 5 -3 31 7 68 9 33 17 67 18 75 2 25 -31 22 -50 -5z m-194 -87
c0 -21 -174 -167 -186 -156 -16 17 64 129 121 170 37 27 40 28 52 12 7 -10 13
-22 13 -26z"/>
<path d="M3103 2603 c-7 -3 -13 -13 -13 -23 0 -19 17 -30 38 -23 6 3 12 13 12
23 0 19 -17 30 -37 23z"/>
</g>
</svg>
